<svg id="Ebene_1" data-name="Ebene 1" xmlns="http://www.w3.org/2000/svg" viewBox="0 0 124.9928 33.53422"><defs><style>.cls-1{fill:#998677;}.cls-2{fill:#e84f35;}</style></defs><title>L_spfnk_e_RGB</title><path class="cls-1" d="M11.431,18.38791A1.57694,1.57694,0,0,1,9.32,18.277c-.03965-.119-.1586-.2379-.1586-.35686a.64108.64108,0,0,1,.2379-.59476c.55511-.47581,1.46707-.119,1.94288.43616a1.36492,1.36492,0,0,1,.15731.44413A.39181.39181,0,0,1,11.431,18.38791Z"/><path class="cls-1" d="M14.63185,10.45721a.8926.8926,0,0,1-.2378.26647.95905.95905,0,0,1-.16066.12456,1.28438,1.28438,0,0,1-1.53461-.36621.76858.76858,0,0,1-.14228-.253.868.868,0,0,1-.03285-.19629A.89172.89172,0,0,1,12.53,9.869a.80781.80781,0,0,1,.03684-.15694.79074.79074,0,0,1,.08043-.1537.72662.72662,0,0,1,.109-.12764,1.35352,1.35352,0,0,1,1.857.31927.9426.9426,0,0,1,.05275.12712.84492.84492,0,0,1,.02881.40691A.66237.66237,0,0,1,14.63185,10.45721Z"/><path class="cls-1" d="M13.27978,13.02627a1.94064,1.94064,0,0,1-1.16754.37136.81119.81119,0,0,1-.169-.03724,1.11322,1.11322,0,0,1-.62134-1.2536.54.54,0,0,1,.32677-.29707,1.39418,1.39418,0,0,1,.62553.00567c.06371.01435.12742.03192.19028.05171a1.12123,1.12123,0,0,1,.54639.22639,1.06319,1.06319,0,0,1,.14493.13507.74977.74977,0,0,1,.18186.7A.44239.44239,0,0,1,13.27978,13.02627Z"/><path class="cls-1" d="M12.32656,15.88312a.73941.73941,0,0,1-.82789.32369,1.72573,1.72573,0,0,1-.24536-.06264c-.5869-.13716-1.32984-.5424-.99214-1.25156.03377-.10131.13508-.16885.20262-.23639a.60681.60681,0,0,1,.30393-.13508,1.37527,1.37527,0,0,1,.45527.01751c.05.01.09943.02251.14758.03674s.09506.03017.14008.04706a1.285,1.285,0,0,1,.439.30393,1.56536,1.56536,0,0,1,.34946.58609,1.22915,1.22915,0,0,1,.063.22393A.45258.45258,0,0,1,12.32656,15.88312Z"/><path class="cls-1" d="M11.13272,21.13664a1.0862,1.0862,0,0,1-1.77383.26528,1.37832,1.37832,0,0,1-.37625-.98767.71239.71239,0,0,1,.32922-.51735,1.2778,1.2778,0,0,1,1.505.1411c.09406.1411.28219.18813.32922.37625a1.00892,1.00892,0,0,1,.07109.47424A.74258.74258,0,0,1,11.13272,21.13664Z"/><path class="cls-1" d="M10.78391,23.84718a.93131.93131,0,0,1-.94938.57642,2.31467,2.31467,0,0,1-.97583-.85241c-.02359-.07647-.03535-.15878-.05887-.22932-.047-.1411.047-.23516.08818-.388a.78847.78847,0,0,1,.194-.17637c.09406-.09406.23516-.09406.32922-.1411a1.71455,1.71455,0,0,1,.27715-.00071c.52239.04774,1.13381.377,1.14426.98733A.65109.65109,0,0,1,10.78391,23.84718Z"/><path class="cls-1" d="M10.73519,26.03889c-.11672.46809-.66288.5045-1.027.32245a1.13816,1.13816,0,0,1-.40051-.32769.54442.54442,0,0,1-.03641-.47333c.29128-.54616,1.09231-.25487,1.36515.20244A.45085.45085,0,0,1,10.73519,26.03889Z"/><path class="cls-1" d="M19.52073,12.30286a.82061.82061,0,0,0,.08963.41175.9899.9899,0,0,0,.12.18347,1.82108,1.82108,0,0,0,1.24929.42867q.116-.00045.23205-.01155a.89676.89676,0,0,0,.91018-1.17694,1.05219,1.05219,0,0,0-.09932-.298c-.19865-.298-.56283-.298-.89338-.31818-.07418.002-.1492.00763-.22446.01641a4.674,4.674,0,0,0-1.25313.36495.79757.79757,0,0,0-.13088.39937Z"/><path class="cls-1" d="M19.75216,15.11826a.585.585,0,0,0,.13662.50857,1.06937,1.06937,0,0,0,.13587.1535,1.41051,1.41051,0,0,0,.37568.2483,1.62568,1.62568,0,0,0,.23042.08556,1.70247,1.70247,0,0,0,1.01658-.19721q.09358-.04875.18271-.10671c.23911-.16529.62419-.422.33538-.7429a2.19223,2.19223,0,0,0-1.02687-.57762,1.00968,1.00968,0,0,0-.54174.00241,1.5496,1.5496,0,0,0-.22185.07119,1.43036,1.43036,0,0,0-.5619.40018A.48208.48208,0,0,0,19.75216,15.11826Z"/><path class="cls-1" d="M19.79331,17.72117a.74518.74518,0,0,0-.0179.19611,1.33979,1.33979,0,0,0,.06455.287,1.04245,1.04245,0,0,0,1.09339.84241,2.68773,2.68773,0,0,0,.88935-.28737.37049.37049,0,0,0,.15419-.12259c.07454-.11181.22362-.18635.221-.32188a.76732.76732,0,0,0,.03987-.19989,1.21318,1.21318,0,0,0-.14908-.52177,1.355,1.355,0,0,0-.97568-.45326c-.08088-.01225-.16225-.02107-.2426-.02694a3.68843,3.68843,0,0,0-.45884-.0043.8793.8793,0,0,0-.5496.42793A.74518.74518,0,0,0,19.79331,17.72117Z"/><path class="cls-1" d="M19.03322,20.75642a.81318.81318,0,0,0-.04775.24272.90983.90983,0,0,0,.023.2359,1.11515,1.11515,0,0,0,.07072.31874,1.01377,1.01377,0,0,0,.14914.262.97.97,0,0,0,1.51876.129c.08555-.12832.25664-.21386.29941-.385a2.76664,2.76664,0,0,0,.17109-.556.69368.69368,0,0,0-.29941-.59882c-.12832-.08555-.29941-.08555-.44546-.19315-.07537-.01771-.1549-.03365-.23648-.04555a1.0328,1.0328,0,0,0-1.12522.4121A.88259.88259,0,0,0,19.03322,20.75642Z"/><path class="cls-1" d="M17.78131,23.18642A1.0131,1.0131,0,0,0,18.187,24.249a1.19481,1.19481,0,0,0,.21013.12757,1.13132,1.13132,0,0,0,.48373.11052.77574.77574,0,0,0,.35031-.086.86282.86282,0,0,0,.15746-.10314.73813.73813,0,0,0,.21173-1.05,1.74158,1.74158,0,0,0-1.31908-.39972,3.416,3.416,0,0,0-.38171.17053A.47965.47965,0,0,0,17.78131,23.18642Z"/><path class="cls-1" d="M16.13086,25.44279c-.16987.73789.8178,1.2082,1.47625,1.16117a.898.898,0,0,0,.37625-.1411c.047-.09406.18813-.18813.18813-.32922a1.17977,1.17977,0,0,0-.70548-1.12876,1.793,1.793,0,0,0-.70548-.047.69151.69151,0,0,0-.52421.30732A.59471.59471,0,0,0,16.13086,25.44279Z"/><path class="cls-1" d="M15.00118,27.37989a.72685.72685,0,0,0,.611.89563.87473.87473,0,0,0,.438-.052.49193.49193,0,0,0,.18785-.19619c.0399-.11539.1162-.23194.08329-.345a.72915.72915,0,0,0-1.09448-.51554A.50559.50559,0,0,0,15.00118,27.37989Z"/><path class="cls-1" d="M14.32773,25.14415a.96539.96539,0,0,1-1.57655.23577,1.225,1.225,0,0,1-.33441-.87782.63315.63315,0,0,1,.29261-.45981,1.13568,1.13568,0,0,1,1.33763.1254c.0836.1254.25081.1672.29261.33441a.89671.89671,0,0,1,.06319.4215A.66.66,0,0,1,14.32773,25.14415Z"/><path class="cls-1" d="M15.72547,22.16379c-.81426.66314-1.962.86194-2.51862.05276-.03607-.1572-.16716-.30678-.15572-.46779a1.06455,1.06455,0,0,1,.3422-.82792,1.534,1.534,0,0,1,2.28586.40364,1.77849,1.77849,0,0,1,.14579.586A.66024.66024,0,0,1,15.72547,22.16379Z"/><path class="cls-1" d="M17.15349,18.86762a2.42546,2.42546,0,0,1-3.17611-.21039c-.06229-.17537-.2438-.35254-.24649-.527a.90282.90282,0,0,1,.34421-.867c.82376-.68537,2.2028-.14134,2.93063.68363a2.02963,2.02963,0,0,1,.24652.655A.54978.54978,0,0,1,17.15349,18.86762Z"/><path class="cls-1" d="M18.02336,15.22176a3.16461,3.16461,0,0,1-1.90391.60558,1.32281,1.32281,0,0,1-.27567-.06072,1.81533,1.81533,0,0,1-1.01323-2.04424.8805.8805,0,0,1,.53287-.48443,2.27349,2.27349,0,0,1,1.02005.00924c.1039.0234.20779.05206.31029.08433a1.8284,1.8284,0,0,1,.891.36917,1.73375,1.73375,0,0,1,.23634.22026,1.22265,1.22265,0,0,1,.29656,1.14157A.7214.7214,0,0,1,18.02336,15.22176Z"/><path class="cls-1" d="M18.81246,11.21961a2.85749,2.85749,0,0,1-1.71914.54681,1.19444,1.19444,0,0,1-.24891-.05483,1.63915,1.63915,0,0,1-.9149-1.84585.795.795,0,0,1,.48116-.43742,2.05285,2.05285,0,0,1,.92106.00834c.09381.02113.18762.047.28018.07614a1.651,1.651,0,0,1,.80453.33334,1.56549,1.56549,0,0,1,.21341.19889,1.104,1.104,0,0,1,.26778,1.03078A.65139.65139,0,0,1,18.81246,11.21961Z"/><path class="cls-1" d="M13.31005,27.91169a.72779.72779,0,0,1-1.18853.17774.92352.92352,0,0,1-.2521-.66177A.47732.47732,0,0,1,12.09,27.081a.85617.85617,0,0,1,1.00841.09454c.063.09454.18908.12605.22059.2521a.676.676,0,0,1,.04764.31776A.49756.49756,0,0,1,13.31005,27.91169Z"/><path class="cls-2" d="M12.01428,6.92064C9.4881,3.65966,5.12158,1.47924,0,1.10967c0,0,2.5061.93152,1.89917,4.5791C.52667,14.17724,4.96277,22.20269,6.493,24.54857,6.243,24.29747,3.95886,13.85186,12.01428,6.92064ZM8.16547,8.3886H6.58887V9.9652H5.01227V8.3886H3.43567V6.812h1.5766V5.2354h1.5766V6.812h1.5766Z"/><path class="cls-1" d="M25.194,11.203c-1.71182-4.21007-1.59494-6.60552-2.35-7.84591a2.01525,2.01525,0,0,0-1.10512-.81082C22.10682,1.66572,22.5263.80047,22.9,0c-2.92392.70831-2.37837,1.21273-3.31021,2.24707-1.98026-.63092-6.60808,4.157-6.60808,4.157S21.609,1.55342,23.02559,10.49988c.23488,1.48331,1.11134,2.78668,1.73292,5.31988,1.11417,5.63521-2.75447,9.41256-4.06543,10.65952s-2.28826,2.83338-3.55157,4.17719a4.91921,4.91921,0,0,1-3.31079,1.76791c-2.05112-.018-3.17367-2.369-3.17367-2.369a3.90581,3.90581,0,0,0,3.26406,3.47166c.77386,0,1.82575.21693,4.61525-1.7394C22.577,28.59275,24.79425,25.91283,25.74,23.507,26.55425,21.39773,26.90578,15.41311,25.194,11.203Z"/><path d="M34.36487,13.07177a4.15619,4.15619,0,0,0,2.10889.5498c1.40918,0,1.86914-.37988,1.86914-1.23926,0-.7998-.33984-1.17969-1.6792-1.39941-2.03906-.33984-2.65869-.86914-2.65869-2.0791,0-1.26953.86963-1.86914,2.55859-1.86914a5.646,5.646,0,0,1,2.05908.35059l-.23.63965a4.82885,4.82885,0,0,0-1.80908-.32031c-1.33936,0-1.81885.37988-1.81885,1.18945,0,.75.36963,1.11914,2.09863,1.41895,1.729.29,2.23877.87012,2.23877,2.03906,0,1.22949-.67969,1.93945-2.63818,1.93945a4.48194,4.48194,0,0,1-2.35889-.58984Z"/><path d="M44.233,8.73388l1.36914,4.3877,1.50928-4.3877H47.861l-1.88916,5.4375h-.75928L43.85315,9.79345l-1.35937,4.37793H41.7345l-1.88916-5.4375h.74951l1.50928,4.3877,1.36914-4.3877Z"/><path d="M49.80481,6.91552v1.0791h-.72949V6.91552Zm-.72949,1.81836h.72949v5.4375h-.72949Z"/><path d="M51.61487,13.272a3.51722,3.51722,0,0,0,1.58936.36914c1.15918,0,1.61914-.2793,1.61914-.93945,0-.64941-.30029-.90918-1.51953-1.03906-1.499-.15039-1.959-.66016-1.959-1.53906,0-1.01953.71-1.50977,2.15918-1.50977a5.26426,5.26426,0,0,1,1.66895.25l-.16016.62012A4.75489,4.75489,0,0,0,53.504,9.25341c-1.01953,0-1.4292.26074-1.4292.84961,0,.5498.31982.83008,1.519.9502,1.48926.16992,1.959.59961,1.959,1.64844,0,1-.63965,1.5791-2.30908,1.5791a4.14831,4.14831,0,0,1-1.86865-.39941Z"/><path d="M56.88489,13.272a3.51722,3.51722,0,0,0,1.58936.36914c1.15918,0,1.61914-.2793,1.61914-.93945,0-.64941-.30029-.90918-1.51953-1.03906-1.499-.15039-1.959-.66016-1.959-1.53906,0-1.01953.71-1.50977,2.15918-1.50977a5.26426,5.26426,0,0,1,1.66895.25l-.16016.62012A4.75489,4.75489,0,0,0,58.774,9.25341c-1.01953,0-1.4292.26074-1.4292.84961,0,.5498.31982.83008,1.519.9502,1.48926.16992,1.959.59961,1.959,1.64844,0,1-.63965,1.5791-2.30908,1.5791a4.14831,4.14831,0,0,1-1.86865-.39941Z"/><path d="M65.86389,11.59227v2.5791h-.75928V7.33446a8.8186,8.8186,0,0,1,2.17871-.2998c1.939,0,2.87842.78027,2.87842,2.37891,0,1.46973-.81982,2.36914-2.81836,2.36914A5.72422,5.72422,0,0,1,65.86389,11.59227ZM69.402,9.41356c0-1.17871-.69971-1.709-2.09863-1.709a6.00314,6.00314,0,0,0-1.43945.16992v3.08887a5.79557,5.79557,0,0,0,1.37939.14941C68.6925,11.11278,69.402,10.59325,69.402,9.41356Z"/><path d="M71.50452,14.17138V6.91552H72.234v7.25586Z"/><path d="M77.50208,13.69091a2.56663,2.56663,0,0,1-1.73877.60059c-1.19971,0-1.98926-.4502-1.98926-1.51953v-.17969c0-1.08008.63965-1.58984,2.229-1.58984a5.91288,5.91288,0,0,1,1.499.16016v-.64941c0-.90918-.39941-1.25977-1.4292-1.25977a5.36052,5.36052,0,0,0-1.86865.37012l-.25-.58984a6.03713,6.03713,0,0,1,2.12891-.41992c1.53906,0,2.14844.65039,2.14844,1.87891v3.67871h-.72949Zm0-1.91895a7.57539,7.57539,0,0,0-1.479-.12988c-1.20947,0-1.519.31055-1.519.97949v.08008c0,.71.43945.9502,1.41895.9502a2.483,2.483,0,0,0,1.5791-.49023Z"/><path d="M82.6925,9.37352H81.1134v3.34863c0,.71973.24951.92969.93945.92969a4.31533,4.31533,0,0,0,.63965-.04l.02979.61914a4.4024,4.4024,0,0,1-.77979.06055c-1.0791,0-1.55908-.41992-1.55908-1.51953V9.37352h-.9292V8.73388h.9292V7.33446h.73V8.73388h1.5791Z"/><path d="M85.62317,8.73388h1.64844v.63965H85.62317v4.79785h-.72949V9.37352h-1.1499V8.73388h1.1499v-.04c0-1.23926.459-1.77832,1.67871-1.77832a3.62151,3.62151,0,0,1,.76953.06934l-.07031.62012a3.71531,3.71531,0,0,0-.68945-.0498c-.73926,0-.959.28906-.959,1.13867Z"/><path d="M90.72278,14.29149c-1.64941,0-2.63867-1.00977-2.63867-2.83887s.98926-2.83887,2.63867-2.83887c1.64844,0,2.63867,1.00977,2.63867,2.83887S92.37122,14.29149,90.72278,14.29149Zm0-5.03809c-1.21973,0-1.90918.67969-1.90918,2.19922s.68945,2.19922,1.90918,2.19922c1.21875,0,1.90918-.67969,1.90918-2.19922S91.94153,9.25341,90.72278,9.25341Z"/><path d="M94.78333,14.17138V8.73388h.72949v.79A1.8216,1.8216,0,0,1,97.172,8.61376a1.55819,1.55819,0,0,1,.66016.12012l-.09961.64941a1.81336,1.81336,0,0,0-2.21973.84961v3.93848Z"/><path d="M99.0636,8.73388h.73047v.81934a2.3674,2.3674,0,0,1,1.83838-.93945,1.54828,1.54828,0,0,1,1.58887,1.01953,2.48005,2.48005,0,0,1,1.96875-1.01953c1.15918,0,1.749.71973,1.749,1.93945v3.61816h-.72949V10.603c0-.94922-.41992-1.34961-1.12988-1.34961a2.20963,2.20963,0,0,0-1.72852,1.00977,2.709,2.709,0,0,1,.01953.29v3.61816h-.72949V10.603c0-.94922-.41992-1.34961-1.13867-1.34961a2.20042,2.20042,0,0,0-1.7085,1.00977v3.9082H99.0636Z"/><path d="M112.78284,8.73388h1.64941v.63965h-1.64941v4.79785h-.72949V9.37352h-1.14941V8.73388h1.14941v-.04c0-1.23926.46-1.77832,1.67871-1.77832a3.60933,3.60933,0,0,1,.76953.06934l-.06934.62012a3.72812,3.72812,0,0,0-.68945-.0498c-.74023,0-.96.28906-.96,1.13867Z"/><path d="M117.88342,14.29149c-1.64941,0-2.63867-1.00977-2.63867-2.83887s.98926-2.83887,2.63867-2.83887c1.64844,0,2.63867,1.00977,2.63867,2.83887S119.53186,14.29149,117.88342,14.29149Zm0-5.03809c-1.21973,0-1.90918.67969-1.90918,2.19922s.68945,2.19922,1.90918,2.19922c1.21875,0,1.90918-.67969,1.90918-2.19922S119.10217,9.25341,117.88342,9.25341Z"/><path d="M121.944,14.17138V8.73388h.73047v.79a1.81889,1.81889,0,0,1,1.6582-.91016,1.55819,1.55819,0,0,1,.66016.12012l-.09961.64941a1.81211,1.81211,0,0,0-2.21875.84961v3.93848Z"/><path d="M34.36487,25.57177a4.15619,4.15619,0,0,0,2.10889.5498c1.40918,0,1.86914-.37988,1.86914-1.23926,0-.7998-.33984-1.17969-1.6792-1.39941-2.03906-.33984-2.65869-.86914-2.65869-2.0791,0-1.26953.86963-1.86914,2.55859-1.86914a5.646,5.646,0,0,1,2.05908.35059l-.23.63965a4.82885,4.82885,0,0,0-1.80908-.32031c-1.33936,0-1.81885.37988-1.81885,1.18945,0,.75.36963,1.11914,2.09863,1.41895,1.729.29,2.23877.87012,2.23877,2.03906,0,1.22949-.67969,1.93945-2.63818,1.93945a4.48194,4.48194,0,0,1-2.35889-.58984Z"/><path d="M45.32239,26.67138H44.5929V25.8413a2.84452,2.84452,0,0,1-2.12891.9502,1.85336,1.85336,0,0,1-1.979-2.10937V21.23388h.72949v3.39844c0,1.0498.5,1.51953,1.37939,1.51953a2.65353,2.65353,0,0,0,1.999-.97949V21.23388h.72949Z"/><path d="M47.13489,25.772a3.51722,3.51722,0,0,0,1.58936.36914c1.15918,0,1.61914-.2793,1.61914-.93945,0-.64941-.30029-.90918-1.51953-1.03906-1.499-.15039-1.959-.66016-1.959-1.53906,0-1.01953.71-1.50977,2.15918-1.50977a5.26426,5.26426,0,0,1,1.66895.25l-.16016.62012a4.75489,4.75489,0,0,0-1.50879-.23047c-1.01953,0-1.4292.26074-1.4292.84961,0,.5498.31982.83008,1.519.9502,1.48926.16992,1.959.59961,1.959,1.64844,0,1-.63965,1.5791-2.30908,1.5791a4.14831,4.14831,0,0,1-1.86865-.39941Z"/><path d="M55.17346,21.87352H53.59387v3.34863c0,.71973.25.92969.93994.92969a4.31533,4.31533,0,0,0,.63965-.04l.02979.61914a4.4024,4.4024,0,0,1-.77979.06055c-1.0791,0-1.55908-.41992-1.55908-1.51953V21.87352h-.9292v-.63965h.9292V19.83446h.72949v1.39941h1.57959Z"/><path d="M60.1925,26.19091a2.56663,2.56663,0,0,1-1.73877.60059c-1.19971,0-1.98926-.4502-1.98926-1.51953v-.17969c0-1.08008.63965-1.58984,2.229-1.58984a5.91288,5.91288,0,0,1,1.499.16016v-.64941c0-.90918-.39941-1.25977-1.4292-1.25977a5.36052,5.36052,0,0,0-1.86865.37012l-.25-.58984a6.03713,6.03713,0,0,1,2.12891-.41992c1.53906,0,2.14844.65039,2.14844,1.87891v3.67871H60.1925Zm0-1.91895a7.57539,7.57539,0,0,0-1.479-.12988c-1.20947,0-1.519.31055-1.519.97949v.08008c0,.71.43945.9502,1.41895.9502a2.483,2.483,0,0,0,1.5791-.49023Z"/><path d="M63.37415,19.41552v1.0791h-.72949v-1.0791Zm-.72949,1.81836h.72949v5.4375h-.72949Z"/><path d="M65.11438,21.23388h.72949V22.064a2.84452,2.84452,0,0,1,2.12891-.9502,1.85358,1.85358,0,0,1,1.979,2.10938v3.44824h-.73V23.27294c0-1.0498-.49951-1.51953-1.37891-1.51953a2.6474,2.6474,0,0,0-1.999.99023v3.92773h-.72949Z"/><path d="M75.18225,26.19091a2.56755,2.56755,0,0,1-1.73877.60059c-1.19971,0-1.98926-.4502-1.98926-1.51953v-.17969c0-1.08008.63965-1.58984,2.229-1.58984a5.91288,5.91288,0,0,1,1.499.16016v-.64941c0-.90918-.3999-1.25977-1.4292-1.25977a5.36052,5.36052,0,0,0-1.86865.37012l-.25-.58984a6.03713,6.03713,0,0,1,2.12891-.41992c1.53906,0,2.14844.65039,2.14844,1.87891v3.67871h-.72949Zm0-1.91895a7.57539,7.57539,0,0,0-1.479-.12988c-1.20947,0-1.519.31055-1.519.97949v.08008c0,.71.43945.9502,1.41895.9502a2.483,2.483,0,0,0,1.5791-.49023Z"/><path d="M80.2926,26.79149a2.63085,2.63085,0,0,1-1.92871-.83008v.71H77.6344V19.41552h.72949v2.52832a2.63085,2.63085,0,0,1,1.92871-.83008c1.41943,0,2.28906.86035,2.28906,2.83887S81.712,26.79149,80.2926,26.79149ZM78.36389,22.603v2.69922a2.50212,2.50212,0,0,0,1.80908.84961c1.06934,0,1.6792-.62012,1.6792-2.19922s-.60986-2.19922-1.6792-2.19922A2.50212,2.50212,0,0,0,78.36389,22.603Z"/><path d="M84.004,26.67138V19.41552h.72949v7.25586Z"/><path d="M86.89465,24.24267a1.98659,1.98659,0,0,0,2.18945,1.90918,2.23149,2.23149,0,0,0,1.38867-.43066l.25977.58984a2.79106,2.79106,0,0,1-1.65918.48047,2.68772,2.68772,0,0,1-2.918-2.79883A2.69905,2.69905,0,0,1,89.004,21.11376a2.1296,2.1296,0,0,1,2.29883,2.16895,4.02964,4.02964,0,0,1-.12012.96Zm.00977-.63965h3.62891a1.30836,1.30836,0,0,0,.03906-.36035,1.44913,1.44913,0,0,0-1.61816-1.48926A1.93632,1.93632,0,0,0,86.90442,23.603Z"/><path d="M98.47375,19.53466a4.35984,4.35984,0,0,1,1.97852.41992l-.26953.62012a3.931,3.931,0,0,0-1.709-.37012c-1.61914,0-2.53809.87988-2.53809,2.958,0,2.0791.91895,2.959,2.53809,2.959a3.931,3.931,0,0,0,1.709-.37012l.26953.62012a4.35984,4.35984,0,0,1-1.97852.41992c-1.959,0-3.29785-.99023-3.29785-3.62891C95.1759,20.52489,96.51477,19.53466,98.47375,19.53466Z"/><path d="M104.01331,26.79149c-1.64941,0-2.63867-1.00977-2.63867-2.83887s.98926-2.83887,2.63867-2.83887c1.64844,0,2.63867,1.00977,2.63867,2.83887S105.66174,26.79149,104.01331,26.79149Zm0-5.03809c-1.21973,0-1.90918.67969-1.90918,2.19922s.68945,2.19922,1.90918,2.19922c1.21875,0,1.90917-.67969,1.90917-2.19922S105.23206,21.75341,104.01331,21.75341Z"/><path d="M110.36292,21.11376a3.72139,3.72139,0,0,1,1.63965.33008l-.2207.59961a3.02828,3.02828,0,0,0-1.37891-.29c-1.2793,0-1.91895.63965-1.91895,2.19922s.63965,2.19922,1.91895,2.19922a3.02828,3.02828,0,0,0,1.37891-.29l.2207.59961a3.72139,3.72139,0,0,1-1.63965.33008c-1.66895,0-2.6084-.91016-2.6084-2.83887S108.694,21.11376,110.36292,21.11376Z"/><path d="M115.53381,26.79149c-1.64941,0-2.63867-1.00977-2.63867-2.83887s.98926-2.83887,2.63867-2.83887c1.64844,0,2.63866,1.00977,2.63866,2.83887S117.18225,26.79149,115.53381,26.79149Zm0-5.03809c-1.21973,0-1.90918.67969-1.90918,2.19922s.68945,2.19922,1.90918,2.19922c1.21875,0,1.90918-.67969,1.90918-2.19922S116.75256,21.75341,115.53381,21.75341Z"/><path d="M123.12268,26.19091a2.56613,2.56613,0,0,1-1.73926.60059c-1.19922,0-1.98828-.4502-1.98828-1.51953v-.17969c0-1.08008.63965-1.58984,2.22852-1.58984a5.91563,5.91563,0,0,1,1.499.16016v-.64941c0-.90918-.39941-1.25977-1.42871-1.25977a5.361,5.361,0,0,0-1.86914.37012l-.25-.58984a6.03934,6.03934,0,0,1,2.12891-.41992c1.53906,0,2.14844.65039,2.14844,1.87891v3.67871h-.72949Zm0-1.91895a7.58082,7.58082,0,0,0-1.47949-.12988c-1.209,0-1.51855.31055-1.51855.97949v.08008c0,.71.43945.9502,1.41895.9502a2.482,2.482,0,0,0,1.5791-.49023Z"/></svg>